<?xml version="1.0" encoding="UTF-8" standalone="no"?>
<svg
   version="1.1"
   width="44.386501"
   height="50"
   x="0"
   y="0"
   viewBox="0 0 44.384767 49.998047"
   xml:space="preserve"
   class=""
   id="svg8"
   xmlns="http://www.w3.org/2000/svg"
   xmlns:svg="http://www.w3.org/2000/svg"><defs
     id="defs8" /><g
     id="g8"
     transform="matrix(0.09765625,0,0,0.09765625,-2.8066406,0)"><path
       fill="#00358f"
       d="m 483.24,77.21 v 164.4 c 0,40.69 -18.65,87.92 -52.5,132.99 -39.45,52.51 -97.56,98.86 -168.05,134.04 l -6.7,3.34 -6.7,-3.34 C 178.8,473.46 120.69,427.11 81.24,374.6 47.39,329.53 28.74,282.3 28.74,241.61 V 77.21 L 139.3,0 h 233.38 z"
       opacity="1"
       data-original="#00358f"
       id="path1" /><path
       fill="#012453"
       d="m 483.24,77.21 v 164.4 c 0,40.69 -18.65,87.92 -52.5,132.99 -39.45,52.51 -97.56,98.86 -168.05,134.04 l -6.7,3.34 V 0 h 116.69 z"
       opacity="1"
       data-original="#012453"
       class=""
       id="path2" /><path
       fill="#00b3fe"
       d="M 353.8,60 H 158.18 l -69.44,48.49 v 133.12 c 0,45.75 45.01,135.15 167.25,202.78 C 378.23,376.76 423.24,287.36 423.24,241.61 V 108.49 Z"
       opacity="1"
       data-original="#00b3fe"
       class=""
       id="path3" /><path
       fill="#0274f9"
       d="m 423.24,108.49 v 133.12 c 0,45.75 -45.01,135.15 -167.25,202.78 V 60 h 97.81 z"
       opacity="1"
       data-original="#0274f9"
       id="path4" /><path
       fill="#eff5fa"
       d="M 358.52,45 H 153.46 l -79.72,55.67 v 140.94 c 0,29.26 14.82,66.44 40.65,102 31.45,43.3 77.9,82.69 134.34,113.91 l 7.26,4.02 7.26,-4.02 c 56.44,-31.22 102.89,-70.61 134.34,-113.91 25.83,-35.56 40.65,-72.74 40.65,-102 V 100.67 Z m 49.72,196.61 c 0,39.91 -40.71,121.4 -152.25,185.56 C 144.45,363.01 103.74,281.52 103.74,241.61 V 116.31 L 162.9,75 h 186.18 l 59.16,41.31 z"
       opacity="1"
       data-original="#eff5fa"
       id="path5" /><path
       fill="#c6e1ec"
       d="m 438.24,100.67 v 140.94 c 0,29.26 -14.82,66.44 -40.65,102 -31.45,43.3 -77.9,82.69 -134.34,113.91 l -7.26,4.02 V 427.17 C 367.53,363.01 408.24,281.52 408.24,241.61 V 116.31 L 349.08,75 H 255.99 V 45 h 102.53 z"
       opacity="1"
       data-original="#c6e1ec"
       id="path6" /><path
       fill="#eff5fa"
       d="m 351.75,174.24 -95.76,98.42 -0.2,0.21 -24.35,25.02 -71.21,-66.6 20.49,-21.91 49.72,46.51 25.35,-26.04 0.2,-0.21 74.26,-76.32 z"
       opacity="1"
       data-original="#eff5fa"
       id="path7" /><path
       fill="#c6e1ec"
       d="m 351.75,174.24 -95.76,98.42 v -43.02 l 74.26,-76.32 z"
       opacity="1"
       data-original="#c6e1ec"
       id="path8" /></g></svg>
